<svg xmlns="http://www.w3.org/2000/svg" version="1.1" xmlns:xlink="http://www.w3.org/1999/xlink" xmlns:svgjs="http://svgjs.dev/svgjs" width="1000" height="1000" viewBox="0 0 1000 1000"><rect width="1000" height="1000" fill="#000000"></rect><g transform="matrix(0.7,0,0,0.7,149.57575757575756,282.1265587044535)"><svg viewBox="0 0 396 247" data-background-color="#000000" preserveAspectRatio="xMidYMid meet" height="623" width="1000" xmlns="http://www.w3.org/2000/svg" xmlns:xlink="http://www.w3.org/1999/xlink"><defs></defs><g id="tight-bounds" transform="matrix(1,0,0,1,0.2400000000000091,-0.09999999999999432)"><svg viewBox="0 0 395.52 247.2" height="247.2" width="395.52"><g><svg></svg></g><g><svg viewBox="0 0 395.52 247.2" height="247.2" width="395.52"><g transform="matrix(3.4055555555555554, 0, 0, 3.4055555555555554, 111.76972871780394, 1)"><svg xmlns="http://www.w3.org/2000/svg" xmlns:xlink="http://www.w3.org/1999/xlink" version="1.1" x="0" y="0" viewBox="24.700000762939453 12 50.499996185302734 72" enable-background="new 0 0 100 100" xml:space="preserve" height="72" width="50.499996185302734" class="icon-none" data-fill-palette-color="accent" id="none"><path d="M50 12C36 12 24.7 23.3 24.7 37.2 24.7 55.6 50 84 50 84s25.2-28.2 25.2-46.7C75.2 23.3 63.9 12 50 12zM50 47.7c-5.8 0-10.4-4.7-10.4-10.4S44.2 26.8 50 26.8c5.8 0 10.4 4.7 10.4 10.4S55.8 47.7 50 47.7z" fill="#ffffff" data-fill-palette-color="accent"></path></svg></g><rect width="348.05760000000004" height="78.04864887664152" fill="#000000" y="84.57567556167923" x="23.731199999999973" data-fill-palette-color="quaternary"></rect><g transform="matrix(1,0,0,1,39.55199999999999,97.09164730386485)"><svg viewBox="0 0 316.416 53.01670539227031" height="53.01670539227031" width="316.416"><g><svg viewBox="0 0 316.416 53.01670539227031" height="53.01670539227031" width="316.416"><g><svg viewBox="0 0 316.416 53.01670539227031" height="53.01670539227031" width="316.416"><g><svg viewBox="0 0 316.416 53.01670539227031" height="53.01670539227031" width="316.416"><g><svg viewBox="0 0 316.416 53.01670539227031" height="53.01670539227031" width="316.416"><g><svg viewBox="0 0 316.416 53.01670539227031" height="53.01670539227031" width="316.416"><g transform="matrix(1,0,0,1,0,0)"><svg width="316.416" viewBox="4.099999904632568 -35.599998474121094 216.02999877929688 36.19999694824219" height="53.01670539227031" data-palette-color="#fbfbf8"><path d="M8.2 0L4.1 0 4.1-24.3 7.5-24.3 7.85-20.8 8-20.8Q9.6-22.55 11.48-23.73 13.35-24.9 15.55-24.9L15.55-24.9Q18.35-24.9 19.93-23.68 21.5-22.45 22.25-20.25L22.25-20.25Q24.15-22.35 26.08-23.63 28-24.9 30.25-24.9L30.25-24.9Q34-24.9 35.83-22.5 37.65-20.1 37.65-15.4L37.65-15.4 37.65 0 33.55 0 33.55-14.85Q33.55-18.3 32.45-19.83 31.35-21.35 29.05-21.35L29.05-21.35Q26.3-21.35 22.95-17.6L22.95-17.6 22.95 0 18.85 0 18.85-14.85Q18.85-18.3 17.75-19.83 16.65-21.35 14.3-21.35L14.3-21.35Q11.55-21.35 8.2-17.6L8.2-17.6 8.2 0ZM51.15 0.6L51.15 0.6Q48.1 0.6 46.07-1.2 44.05-3 44.05-6.3L44.05-6.3Q44.05-10.3 47.6-12.43 51.15-14.55 58.95-15.4L58.95-15.4Q58.95-16.55 58.72-17.65 58.5-18.75 57.95-19.6 57.4-20.45 56.42-20.98 55.45-21.5 53.95-21.5L53.95-21.5Q51.85-21.5 50-20.7 48.15-19.9 46.7-18.9L46.7-18.9 45.1-21.75Q46.8-22.85 49.25-23.88 51.7-24.9 54.65-24.9L54.65-24.9Q59.1-24.9 61.1-22.18 63.1-19.45 63.1-14.9L63.1-14.9 63.1 0 59.7 0 59.35-2.9 59.2-2.9Q57.45-1.45 55.45-0.43 53.45 0.6 51.15 0.6ZM52.35-2.7L52.35-2.7Q54.1-2.7 55.65-3.53 57.2-4.35 58.95-5.95L58.95-5.95 58.95-12.7Q55.9-12.3 53.82-11.75 51.75-11.2 50.47-10.45 49.2-9.7 48.62-8.72 48.05-7.75 48.05-6.6L48.05-6.6Q48.05-4.5 49.3-3.6 50.55-2.7 52.35-2.7ZM74.85 0L70.75 0 70.75-24.3 74.15-24.3 74.5-19.9 74.65-19.9Q75.9-22.2 77.67-23.55 79.45-24.9 81.55-24.9L81.55-24.9Q83-24.9 84.15-24.4L84.15-24.4 83.35-20.8Q82.75-21 82.25-21.1 81.75-21.2 81-21.2L81-21.2Q79.45-21.2 77.77-19.95 76.1-18.7 74.85-15.6L74.85-15.6 74.85 0ZM92.14 0L88.09 0 88.09-35.6 92.14-35.6 92.14-11.5 92.29-11.5 102.64-24.3 107.19-24.3 99.04-14.55 108.29 0 103.79 0 96.69-11.7 92.14-6.4 92.14 0ZM121.79 0.6L121.79 0.6Q119.34 0.6 117.22-0.28 115.09-1.15 113.52-2.78 111.94-4.4 111.04-6.75 110.14-9.1 110.14-12.1L110.14-12.1Q110.14-15.1 111.06-17.48 111.99-19.85 113.52-21.5 115.04-23.15 116.99-24.03 118.94-24.9 121.04-24.9L121.04-24.9Q123.34-24.9 125.17-24.1 126.99-23.3 128.22-21.8 129.44-20.3 130.09-18.2 130.74-16.1 130.74-13.5L130.74-13.5Q130.74-12.85 130.72-12.23 130.69-11.6 130.59-11.15L130.59-11.15 114.19-11.15Q114.44-7.25 116.62-4.98 118.79-2.7 122.29-2.7L122.29-2.7Q124.04-2.7 125.52-3.23 126.99-3.75 128.34-4.6L128.34-4.6 129.79-1.9Q128.19-0.9 126.24-0.15 124.29 0.6 121.79 0.6ZM114.14-14.1L114.14-14.1 127.14-14.1Q127.14-17.8 125.56-19.73 123.99-21.65 121.14-21.65L121.14-21.65Q119.84-21.65 118.67-21.15 117.49-20.65 116.54-19.68 115.59-18.7 114.97-17.3 114.34-15.9 114.14-14.1ZM143.89 0.6L143.89 0.6Q141.94 0.6 140.61 0 139.29-0.6 138.46-1.65 137.64-2.7 137.29-4.2 136.94-5.7 136.94-7.5L136.94-7.5 136.94-20.95 133.34-20.95 133.34-24.05 137.14-24.3 137.64-31.1 141.09-31.1 141.09-24.3 147.64-24.3 147.64-20.95 141.09-20.95 141.09-7.45Q141.09-5.2 141.91-3.98 142.74-2.75 144.84-2.75L144.84-2.75Q145.49-2.75 146.24-2.95 146.99-3.15 147.59-3.4L147.59-3.4 148.39-0.3Q147.39 0.05 146.21 0.33 145.04 0.6 143.89 0.6ZM161.89 0.6L161.89 0.6Q159.64 0.6 157.61-0.25 155.59-1.1 154.04-2.73 152.49-4.35 151.56-6.73 150.64-9.1 150.64-12.1L150.64-12.1Q150.64-15.15 151.56-17.53 152.49-19.9 154.04-21.55 155.59-23.2 157.61-24.05 159.64-24.9 161.89-24.9L161.89-24.9Q164.14-24.9 166.16-24.05 168.19-23.2 169.74-21.55 171.29-19.9 172.21-17.53 173.14-15.15 173.14-12.1L173.14-12.1Q173.14-9.1 172.21-6.73 171.29-4.35 169.74-2.73 168.19-1.1 166.16-0.25 164.14 0.6 161.89 0.6ZM161.89-2.8L161.89-2.8Q163.44-2.8 164.74-3.48 166.04-4.15 166.96-5.38 167.89-6.6 168.39-8.3 168.89-10 168.89-12.1L168.89-12.1Q168.89-14.2 168.39-15.93 167.89-17.65 166.96-18.9 166.04-20.15 164.74-20.83 163.44-21.5 161.89-21.5L161.89-21.5Q160.34-21.5 159.04-20.83 157.74-20.15 156.81-18.9 155.89-17.65 155.39-15.93 154.89-14.2 154.89-12.1L154.89-12.1Q154.89-10 155.39-8.3 155.89-6.6 156.81-5.38 157.74-4.15 159.04-3.48 160.34-2.8 161.89-2.8ZM186.63 0.6L186.63 0.6Q182.73 0.6 180.96-1.8 179.18-4.2 179.18-8.9L179.18-8.9 179.18-24.3 183.33-24.3 183.33-9.45Q183.33-6 184.41-4.48 185.48-2.95 187.88-2.95L187.88-2.95Q189.78-2.95 191.23-3.93 192.68-4.9 194.43-7.05L194.43-7.05 194.43-24.3 198.53-24.3 198.53 0 195.13 0 194.78-3.8 194.63-3.8Q192.93-1.8 191.06-0.6 189.18 0.6 186.63 0.6ZM210.83 0L206.73 0 206.73-24.3 210.13-24.3 210.48-19.9 210.63-19.9Q211.88-22.2 213.66-23.55 215.43-24.9 217.53-24.9L217.53-24.9Q218.98-24.9 220.13-24.4L220.13-24.4 219.33-20.8Q218.73-21 218.23-21.1 217.73-21.2 216.98-21.2L216.98-21.2Q215.43-21.2 213.76-19.95 212.08-18.7 210.83-15.6L210.83-15.6 210.83 0Z" opacity="1" transform="matrix(1,0,0,1,0,0)" fill="#ffffff" class="undefined-text-0" data-fill-palette-color="primary" id="text-0"></path></svg></g></svg></g></svg></g></svg></g></svg></g></svg></g></svg></g></svg></g></svg><rect width="395.52" height="247.2" fill="none" stroke="none" visibility="hidden"></rect></g></svg></g></svg>