<svg version="1.2" xmlns="http://www.w3.org/2000/svg" viewBox="0 0 1000 222" width="108" height="24">
	<title>logo-no-background-svg</title>
	<style>
		.s0 { fill: #60a5fa } 
		.s1 { fill: #ffffff } 
	</style>
	<g id="Layer">
		<g id="Layer">
			<g id="tight-bounds">
				<g id="Layer">
					<g id="Layer">
						<g id="Layer">
							<g id="Layer">
								<g id="Layer">
									<g id="Layer">
										<g id="Layer">
											<g id="Layer">
												<g id="Layer">
													<path id="Layer" class="s0" d="m996.3 47.6c4.7 23 1.4 24.2 0.7 53.5-0.7 29.4-5.4 24.7-5.4 61.6 0 36.8-22 45-22 45-27.2 3-56.2 6.7-84.1 9.4-118.2 6.8-238.1-0.5-350.3 4.7-42-2.8-89.2 0.7-133.4-0.2-3.7-3.8-7.5-1.5-11.2-0.3-10.7 1.7-20.9-4.9-31.4-0.6-17.3 3.8-33.6-7.8-50 0.8-1.5-0.8-2.5-2-2.7-3.7-5.2-7.9-5.4-5-11.3-1.5-6-0.5-3.1 3-2.6 5.5-10 0.8-7.4-19.1-18-10.8 0.9 1.7 4.7-0.3 4.2 2.9-0.2 2.1-2 2.2-4.1 1.8-3.8-0.7-2.2 2.9-3.2 4.5-7 5.2-11.5-4.1-17.7-1.8-8 1.9 7-10.6-12.9-1.4-76.5-13.1-157.5 6.7-232.2-22-1.1-4.2 9.5-8 2.3-10-1.7-0.4-2.7-1.7-2.5-3.3 1.5-7.8-9.6-14-3-21.2-9.5-6.6 5.6-10.5 2.1-17.3-1.1-2 5.1-2.7 8.1-2.5 4.2 0.3 8 1.5 8.7-4.8 6.8-8.7 22-7.5 33.8-10.1-6.7-10.1-13.7-19.7-3.9-31.3-7-4.3-15.6-0.8-20.9-8.2-1.5-2.7-5 1.7-7.6-0.2 0.6-10.8-17.9-23.8-23-35.6-19.3-28.2 66.2-24.1 82.2-29.2 169.4-16.8 341.2-10 511.5-10.4 81.1-2.7 162.1-7.8 243.4-7.9 46.1-3.5 97.4-8.6 138.5 15.1 0 0 13.4 6.4 18.1 29.5z"/>
													<g id="Layer">
														<g id="Layer">
															<path id="text-0" fill-rule="evenodd" class="s1" d="m160.9 67.4l24.8 66.3 24.8-66.3h20.1v87h-15.5v-27.9l1.6-39.3-25.6 67.2h-10.9l-25.5-67.2 1.5 39.3v27.9h-15.4v-87zm95.7 87h-16.2l32.8-87h14l32.9 87h-16.2l-6.9-19.9h-33.5zm23.6-68.2l-12.4 35.9h24.8zm49.6-18.9h30.9q10 0 17.1 3 7 3 10.8 8.9 3.7 5.8 3.7 14.4 0 6.5-2.4 11.5-2.4 5-6.8 8.3-3 2.4-6.8 4l19.5 36.2v0.8h-16.5l-17.4-33.3h-16.7v33.3h-15.4zm15.4 53.7v-12.4h-4.8l0.1 12.4zm15.6-12.4q5.4 0 8.9-1.8 3.6-1.9 5.4-5.1 1.7-3.2 1.7-7.4 0-6.6-3.9-10.6-3.8-4-12.2-4h-15.5v28.9zm61.5-41.3v40.8l8.4-10.6 25-30.2h18.9l-32.2 38.5 33.8 48.5h-18.4l-25.6-37.2-9.9 10.4v26.8h-15.5v-87zm119.2 74.7v12.3h-57.2v-87h56.9v12.4h-41.4v23.7h35.6v12.2h-35.6v26.4zm49.5 12.3h-15.4v-74.6h-26.9v-12.4h69.5v12.4h-27.2zm106-45.7v4.4q0 13.3-4.5 22.8-4.6 9.5-12.7 14.6-8.1 5.1-19 5.1-10.6 0-18.9-5.1-8.2-5.1-12.8-14.6-4.7-9.5-4.7-22.8v-4.4q0-13.2 4.6-22.8 4.7-9.5 12.8-14.6 8.3-5.2 18.9-5.2 10.9 0 19 5.2 8.2 5.1 12.7 14.6 4.6 9.6 4.6 22.8zm-15.5 4.4v-4.6q0-9.6-2.4-16.2-2.5-6.6-7.2-10-4.6-3.3-11.2-3.3-6.5 0-11.1 3.3-4.6 3.4-7.1 10-2.5 6.6-2.5 16.2v4.6q0 9.7 2.5 16.3 2.5 6.6 7.2 10.1 4.6 3.4 11.1 3.4 6.7 0 11.3-3.4 4.6-3.5 7-10.1 2.4-6.6 2.4-16.3zm79-45.8h15.4v58q0 10-4.3 16.8-4.3 6.7-11.8 10.1-7.4 3.4-16.6 3.4-9.4 0-16.7-3.4-7.5-3.4-11.7-10.1-4.2-6.8-4.2-16.8v-58h15.4v58q0 6.2 2.1 10.2 2.1 3.9 6 5.8 3.9 1.9 9.1 1.9 5.4 0 9.3-1.9 3.8-1.9 5.9-5.8 2.1-4 2.1-10.2zm31.5 0h31q10 0 17 3 7.1 3 10.8 8.9 3.8 5.8 3.8 14.4 0 6.6-2.4 11.5-2.4 5-6.8 8.4-3.1 2.3-6.9 3.9l19.5 36.2v0.8h-16.5l-17.3-33.3h-16.7v33.3h-15.5zm15.5 53.7v-12.3h-4.9l0.1 12.3zm15.6-12.3q5.4 0 8.9-1.9 3.6-1.8 5.4-5.1 1.7-3.2 1.7-7.3 0-6.7-3.8-10.7-3.9-4-12.3-4h-15.5v29z"/>
														</g>
													</g>
												</g>
											</g>
										</g>
									</g>
								</g>
							</g>
							<g id="Layer">
							</g>
						</g>
					</g>
				</g>
			</g>
		</g>
	</g>
</svg>